<svg role="img" viewBox="0 0 20 20" xmlns="http://www.w3.org/2000/svg" id="flatpak-icon" height="20" width="20">
  <desc></desc>
  <title>flatpak</title>
  <path d="M10 0c-0.4633333333333334 0 -0.9258333333333334 0.12 -1.3416666666666668 0.36l-6.335833333333333 3.658333333333333a2.6808333333333336 2.6808333333333336 0 0 0 -1.3416666666666668 2.3233333333333333v7.316666666666666c0 0.9591666666666667 0.51 1.8433333333333335 1.3416666666666668 2.3233333333333333l6.335833333333333 3.658333333333333a2.6808333333333336 2.6808333333333336 0 0 0 2.6833333333333336 0l6.335833333333333 -3.658333333333333a2.6808333333333336 2.6808333333333336 0 0 0 1.3416666666666668 -2.3233333333333333V6.341666666666667a2.6808333333333336 2.6808333333333336 0 0 0 -1.3416666666666668 -2.3233333333333333L11.341666666666667 0.36A2.6816666666666666 2.6816666666666666 0 0 0 10 0Zm0 1.965c0.125 0 0.24916666666666668 0.0325 0.3591666666666667 0.09583333333333334l6.336666666666667 3.658333333333333c0.11000000000000001 0.06416666666666666 0.2 0.15583333333333335 0.2625 0.26333333333333336L10 10v8.035a0.7191666666666667 0.7191666666666667 0 0 1 -0.3591666666666667 -0.09666666666666668l-6.336666666666667 -3.658333333333333a0.7216666666666667 0.7216666666666667 0 0 1 -0.3591666666666667 -0.6216666666666667V6.341666666666667c0 -0.1275 0.03416666666666667 -0.25166666666666665 0.09666666666666668 -0.35833333333333334L10 10Z" fill="#ffffff" stroke-width="0.8333"></path>
</svg>
