<?xml version="1.0" encoding="UTF-8" standalone="no"?>
<!-- Uploaded to: SVG Repo, www.svgrepo.com, Generator: SVG Repo Mixer Tools -->

<svg
   fill="#000000"
   height="800px"
   width="800px"
   version="1.1"
   id="Layer_1"
   viewBox="0 0 512 512"
   xml:space="preserve"
   sodipodi:docname="office-icon.svg"
   inkscape:version="1.4.2 (ebf0e940d0, 2025-05-08)"
   xmlns:inkscape="http://www.inkscape.org/namespaces/inkscape"
   xmlns:sodipodi="http://sodipodi.sourceforge.net/DTD/sodipodi-0.dtd"
   xmlns="http://www.w3.org/2000/svg"
   xmlns:svg="http://www.w3.org/2000/svg"><defs
   id="defs2"><inkscape:path-effect
     effect="fillet_chamfer"
     id="path-effect3"
     is_visible="true"
     lpeversion="1"
     nodesatellites_param="F,0,0,1,0,0,0,1 @ F,0,0,1,0,0,0,1 @ F,0,0,1,0,0,0,1 @ F,0,0,1,0,0,0,1 @ F,0,0,1,0,0,0,1 @ F,0,0,1,0,0,0,1 @ F,0,0,1,0,0,0,1 @ F,0,0,1,0,0,0,1 @ F,0,0,1,0,17.16089,0,1 @ F,0,0,1,0,19.356013,0,1 @ F,0,0,1,0,0,0,1 @ F,0,0,1,0,0,0,1 @ F,0,0,1,0,0,0,1 @ F,0,0,1,0,0,0,1 @ F,0,0,1,0,0,0,1 @ F,0,0,1,0,0,0,1 @ F,0,0,1,0,0,0,1 @ F,0,0,1,0,0,0,1 @ F,0,0,1,0,17.89911,0,1 @ F,0,0,1,0,15.684448,0,1 @ F,0,0,1,0,18.85873,0,1 @ F,0,0,1,0,0,0,1"
     radius="0"
     unit="px"
     method="auto"
     mode="F"
     chamfer_steps="1"
     flexible="false"
     use_knot_distance="true"
     apply_no_radius="true"
     apply_with_radius="true"
     only_selected="false"
     hide_knots="false" /></defs><sodipodi:namedview
   id="namedview2"
   pagecolor="#ffffff"
   bordercolor="#000000"
   borderopacity="0.25"
   inkscape:showpageshadow="2"
   inkscape:pageopacity="0.0"
   inkscape:pagecheckerboard="0"
   inkscape:deskcolor="#d1d1d1"
   inkscape:zoom="0.64735273"
   inkscape:cx="434.84794"
   inkscape:cy="373.8302"
   inkscape:window-width="1872"
   inkscape:window-height="1083"
   inkscape:window-x="26"
   inkscape:window-y="23"
   inkscape:window-maximized="0"
   inkscape:current-layer="Layer_1" />
<g
   id="g2"
   transform="matrix(0.74190886,0.74190886,-0.74190886,0.74190886,261.84312,-115.51548)"
   style="stroke-width:0.953095">
	<g
   id="g1"
   style="stroke-width:0.953095">
		<path
   d="m 256,0 c -54.013,0 -97.955,43.943 -97.955,97.955 v 338.981 c 0,41.39 33.674,75.064 75.064,75.064 41.39,0 75.064,-33.674 75.064,-75.064 V 122.511 c 0,-28.327 -23.046,-51.375 -51.375,-51.375 -28.327,0 -51.374,23.047 -51.374,51.375 V 402.26111 A 17.16089,17.16089 45 0 0 222.58489,419.422 16.969104,16.969104 126.23786 0 0 236.771,400.06599 V 122.511 c 0,-11.042 8.984,-20.028 20.028,-20.028 11.044,0 20.028,8.985 20.028,20.028 v 314.424 c 0,24.106 -19.612,43.717 -43.718,43.717 -24.106,0 -43.717,-19.612 -43.717,-43.717 V 97.955 c 0,-36.727 29.88,-66.608 66.608,-66.608 30.60707,0 56.45845,20.751236 64.22493,48.922746 2.61933,9.501127 2.38307,25.698954 2.38307,35.584364 V 403.73755 A 15.684448,15.684448 45 0 0 338.29245,419.422 17.334463,17.334463 129.71031 0 0 353.955,400.56327 V 97.955 C 353.955,43.943 310.013,0 256,0 Z"
   id="path1"
   style="stroke-width:0.953095"
   inkscape:path-effect="#path-effect3"
   inkscape:original-d="m 256,0 c -54.013,0 -97.955,43.943 -97.955,97.955 v 338.981 c 0,41.39 33.674,75.064 75.064,75.064 41.39,0 75.064,-33.674 75.064,-75.064 V 122.511 c 0,-28.327 -23.046,-51.375 -51.375,-51.375 -28.327,0 -51.374,23.047 -51.374,51.375 v 296.911 h 31.347 V 122.511 c 0,-11.042 8.984,-20.028 20.028,-20.028 11.044,0 20.028,8.985 20.028,20.028 v 314.424 c 0,24.106 -19.612,43.717 -43.718,43.717 -24.106,0 -43.717,-19.612 -43.717,-43.717 V 97.955 c 0,-36.727 29.88,-66.608 66.608,-66.608 36.728,0 66.608,29.881 66.608,66.608 v 321.467 h 31.347 V 97.955 C 353.955,43.943 310.013,0 256,0 Z" />
	</g>
</g>
</svg>
