<?xml version="1.0" encoding="UTF-8" standalone="no"?>
<svg
   viewBox="0 0 480 480"
   version="1.1"
   id="svg1"
   sodipodi:docname="settings-icon.svg"
   inkscape:version="1.4.2 (ebf0e940d0, 2025-05-08)"
   xmlns:inkscape="http://www.inkscape.org/namespaces/inkscape"
   xmlns:sodipodi="http://sodipodi.sourceforge.net/DTD/sodipodi-0.dtd"
   xmlns="http://www.w3.org/2000/svg"
   xmlns:svg="http://www.w3.org/2000/svg">
  <defs
     id="defs1" />
  <sodipodi:namedview
     id="namedview1"
     pagecolor="#ffffff"
     bordercolor="#000000"
     borderopacity="0.25"
     inkscape:showpageshadow="2"
     inkscape:pageopacity="0.0"
     inkscape:pagecheckerboard="0"
     inkscape:deskcolor="#d1d1d1"
     inkscape:zoom="0.81393242"
     inkscape:cx="115.4887"
     inkscape:cy="436.15415"
     inkscape:window-width="1872"
     inkscape:window-height="1083"
     inkscape:window-x="26"
     inkscape:window-y="23"
     inkscape:window-maximized="0"
     inkscape:current-layer="svg1" />
  <path
     d="m 437.505,213.89464 c -25.31583,0 -34.25637,-33.50349 -12.32852,-46.11435 A 28.248956,28.248956 0 1 0 396.94321,118.84261 C 375.01536,131.54759 350.54653,106.98464 363.06327,85.056795 A 28.248955,28.248955 0 0 0 314.1256,56.823521 h 0.0941 c -12.61081,21.927843 -46.1143,12.987306 -46.1143,-12.23442 a 28.233275,28.233275 0 1 0 -56.46655,0 c 0,25.221726 -33.50349,34.162263 -46.11435,12.23442 A 28.24897,28.24897 0 1 0 116.58679,85.056795 C 129.29176,106.98464 104.72881,131.54759 82.800968,118.93672 A 28.248957,28.248957 0 0 0 54.567694,167.8744 c 21.927843,12.51675 12.987306,46.02024 -12.23442,46.02024 a 28.233275,28.233275 0 1 0 0,56.46655 c 25.221726,0 34.162263,33.50349 12.23442,46.11434 a 28.248957,28.248957 0 1 0 28.233274,48.93768 c 21.927842,-12.70498 46.490792,11.85798 33.879932,33.78582 a 28.248955,28.248955 0 0 0 48.93767,28.23327 h -0.0942 c 12.61087,-21.92784 46.11435,-12.9873 46.11435,12.23442 a 28.233275,28.233275 0 1 0 56.46655,0 c 0,-25.22172 33.50349,-34.16226 46.11435,-12.23442 a 28.248955,28.248955 0 1 0 48.93767,-28.23327 c -12.61085,-21.92784 11.85798,-46.4908 33.78583,-33.87993 a 28.248956,28.248956 0 0 0 28.23327,-48.93768 c -21.92785,-12.51674 -12.98731,-46.02023 12.32853,-46.02023 a 28.233275,28.233275 0 1 0 0,-56.46655 z m -197.63292,84.69982 a 56.466551,56.466551 0 1 1 0,-112.9331 56.466551,56.466551 0 0 1 0,112.9331 z"
     fill="#880088"
     id="path1"
     style="stroke-width:0.999997" />
</svg>
