<?xml version="1.0" encoding="UTF-8" standalone="no"?>
<svg
   viewBox="0 0 480 480"
   version="1.1"
   id="svg1"
   sodipodi:docname="system-icon.svg"
   xml:space="preserve"
   inkscape:version="1.4.2 (ebf0e940d0, 2025-05-08)"
   xmlns:inkscape="http://www.inkscape.org/namespaces/inkscape"
   xmlns:sodipodi="http://sodipodi.sourceforge.net/DTD/sodipodi-0.dtd"
   xmlns="http://www.w3.org/2000/svg"
   xmlns:svg="http://www.w3.org/2000/svg"><defs
     id="defs1" /><sodipodi:namedview
     id="namedview1"
     pagecolor="#ffffff"
     bordercolor="#000000"
     borderopacity="0.25"
     inkscape:showpageshadow="2"
     inkscape:pageopacity="0.0"
     inkscape:pagecheckerboard="0"
     inkscape:deskcolor="#d1d1d1"
     inkscape:zoom="1.3374912"
     inkscape:cx="120.37462"
     inkscape:cy="240.00158"
     inkscape:window-width="1872"
     inkscape:window-height="1083"
     inkscape:window-x="26"
     inkscape:window-y="23"
     inkscape:window-maximized="0"
     inkscape:current-layer="svg1" /><path
     style="fill:#000000;fill-opacity:1;stroke-width:24.9902"
     d="M 71.043751,107.87783 C 113.85896,90.293242 170.91614,67.100995 216.12092,52.812039 c 5.97549,-2.188192 11.68435,-4.607346 18.00228,-5.367952 7.04406,-0.848025 14.41187,-0.999036 21.17915,1.132121 60.76412,19.135874 112.9855,39.229679 153.54883,59.301622 4.9216,2.43535 9.31944,6.67579 11.64855,11.64853 3.30744,7.06153 4.15866,15.77114 2.1179,23.29707 -1.58937,5.86133 -5.63414,11.3147 -10.58957,14.8254 -31.68117,22.44473 -80.74335,46.45336 -123.89803,63.53745 -14.24894,5.64088 -28.86539,12.25379 -44.18356,12.7075 -17.719,0.52481 -36.17217,-7.18888 -52.38181,-13.62012 -31.62873,-12.54882 -61.18107,-26.93797 -90.8701,-43.56359 -11.622029,-6.50826 -24.925419,-11.32393 -33.886649,-21.17916 -5.31003,-5.83978 -8.802823,-12.7954 -8.617982,-20.68625 0.236857,-10.11135 5.193782,-20.36232 12.853822,-26.96683 z"
     id="path1"
     sodipodi:nodetypes="ccssssssssssssc" /><path
     style="fill:#000000;fill-opacity:1;stroke-width:24.9902"
     d="m 96.878451,296.93832 c 0,0 61.276699,34.51407 94.886449,46.02808 9.23616,3.16412 18.90615,5.12689 28.59186,6.35373 10.51146,1.33145 13.87591,4.45432 30.78293,3.03056 5.89625,-0.49653 13.99017,-4.02969 19.9007,-4.30901 13.60314,-0.64285 112.6821,-49.71299 112.24949,-52.30865 0,0 26.37221,6.3701 34.03297,17.58256 5.21178,7.62808 5.91087,22.15846 3.17688,30.98316 -3.18391,10.27693 -12.06542,15.18804 -21.17915,20.90575 -30.04309,18.84822 -81.58042,42.7321 -115.42638,57.18371 -13.0702,5.58075 -26.60193,9.14891 -40.80643,9.60378 -13.28536,0.42543 -28.42737,-2.21261 -40.66012,-7.4127 -41.45807,-17.62366 -96.66042,-44.62654 -135.546559,-67.77328 -5.98236,-3.56096 -8.419993,-10.1559 -9.603791,-17.01649 -1.589139,-9.20969 0.982363,-20.19757 6.773471,-27.5329 7.43995,-9.42381 32.82768,-15.3183 32.82768,-15.3183 z"
     id="path2"
     sodipodi:nodetypes="csssscsssssssssc" /><path
     style="fill:#000000;fill-opacity:1;stroke-width:24.9902"
     d="m 96.458731,195.7713 c 0,0 -24.01146,6.94017 -31.76873,15.88437 -5.850891,6.74614 -7.916449,14.52387 -7.485865,23.44339 0.335262,6.94493 3.420135,17.09099 9.457455,20.53992 41.686909,23.8144 86.873139,47.07192 132.516019,66.14827 12.71839,5.31563 26.45636,9.41208 40.24038,9.53062 11.56222,0.0995 23.00296,-3.50881 33.88664,-7.41272 48.68408,-17.46269 101.53596,-44.30697 139.7824,-66.71431 7.80661,-4.57365 9.2017,-16.37323 9.5306,-25.41498 0.22738,-6.25079 -1.72861,-12.86355 -5.29478,-18.00228 -3.01875,-4.34993 -7.18834,-7.78083 -11.72171,-10.5164 -6.35391,-3.83414 -21.10597,-8.54484 -21.10597,-8.54484 0,0 -66.61524,35.15377 -101.65992,48.71205 -6.87404,2.65945 -13.9427,4.95408 -21.17915,6.35374 -7.65583,1.48077 -15.50768,2.47825 -23.29706,2.11792 -9.68231,-0.44789 -17.15824,-3.01957 -28.59186,-5.29479 -16.71592,-3.32637 -75.86312,-33.56248 -113.308449,-50.82996 z"
     id="path3"
     sodipodi:nodetypes="csssssssssscssssc" /></svg>
