<?xml version="1.0" encoding="UTF-8" standalone="no"?>
<!-- Created with Inkscape (http://www.inkscape.org/) -->

<svg
   width="200mm"
   height="200mm"
   viewBox="0 0 200 200"
   version="1.1"
   id="svg1"
   sodipodi:docname="outlet.svg"
   xml:space="preserve"
   inkscape:version="1.4.2 (ebf0e940d0, 2025-05-08)"
   xmlns:inkscape="http://www.inkscape.org/namespaces/inkscape"
   xmlns:sodipodi="http://sodipodi.sourceforge.net/DTD/sodipodi-0.dtd"
   xmlns:xlink="http://www.w3.org/1999/xlink"
   xmlns="http://www.w3.org/2000/svg"
   xmlns:svg="http://www.w3.org/2000/svg"><sodipodi:namedview
     id="namedview1"
     pagecolor="#ffffff"
     bordercolor="#000000"
     borderopacity="0.25"
     inkscape:showpageshadow="2"
     inkscape:pageopacity="0.0"
     inkscape:pagecheckerboard="0"
     inkscape:deskcolor="#d1d1d1"
     inkscape:document-units="mm"
     inkscape:zoom="0.84817976"
     inkscape:cx="415.59586"
     inkscape:cy="374.92052"
     inkscape:window-width="1872"
     inkscape:window-height="1083"
     inkscape:window-x="26"
     inkscape:window-y="23"
     inkscape:window-maximized="0"
     inkscape:current-layer="layer3" /><defs
     id="defs1"><inkscape:path-effect
       effect="fillet_chamfer"
       id="path-effect1"
       is_visible="true"
       lpeversion="1"
       nodesatellites_param="F,0,0,1,0,1.8716551,0,1 @ F,0,0,1,0,1.5767716,0,1 @ F,0,0,1,0,9.9999998,0,1 @ F,0,0,1,0,9.9999998,0,1"
       radius="9.9999999"
       unit="mm"
       method="auto"
       mode="F"
       chamfer_steps="1"
       flexible="false"
       use_knot_distance="true"
       apply_no_radius="true"
       apply_with_radius="true"
       only_selected="false"
       hide_knots="false" /><inkscape:path-effect
       effect="fillet_chamfer"
       id="path-effect6"
       is_visible="true"
       lpeversion="1"
       nodesatellites_param="F,0,0,1,0,0,0,1 @ F,0,0,1,0,0,0,1 @ F,0,0,1,0,0,0,1 @ F,0,0,1,0,0,0,1 @ F,0,0,1,0,0,0,1 @ F,0,0,1,0,0,0,1 @ F,0,0,1,0,0,0,1 @ F,0,0,1,0,0,0,1"
       radius="0"
       unit="px"
       method="auto"
       mode="F"
       chamfer_steps="1"
       flexible="false"
       use_knot_distance="true"
       apply_no_radius="true"
       apply_with_radius="true"
       only_selected="false"
       hide_knots="false" /><linearGradient
       id="linearGradient3"
       inkscape:collect="always"><stop
         style="stop-color:#9c27b0;stop-opacity:1;"
         offset="0"
         id="stop3" /><stop
         style="stop-color:#e91e62;stop-opacity:1;"
         offset="1"
         id="stop6" /></linearGradient><inkscape:path-effect
       effect="fillet_chamfer"
       id="path-effect3"
       is_visible="true"
       lpeversion="1"
       nodesatellites_param="F,0,0,1,0,0,0,1 @ F,0,0,1,0,0,0,1 @ F,0,0,1,0,0,0,1 @ F,0,0,1,0,0,0,1 @ F,0,0,1,0,0,0,1 @ F,0,0,1,0,0,0,1 @ F,0,0,1,0,0,0,1 @ F,0,0,1,0,0,0,1"
       radius="0"
       unit="px"
       method="auto"
       mode="F"
       chamfer_steps="1"
       flexible="false"
       use_knot_distance="true"
       apply_no_radius="true"
       apply_with_radius="true"
       only_selected="false"
       hide_knots="false" /><inkscape:path-effect
       effect="fillet_chamfer"
       id="path-effect2"
       is_visible="true"
       lpeversion="1"
       nodesatellites_param="F,0,0,1,0,0,0,1 @ F,0,0,1,0,0,0,1 @ F,0,0,1,0,0,0,1 @ F,0,0,1,0,0,0,1"
       radius="0"
       unit="px"
       method="auto"
       mode="F"
       chamfer_steps="1"
       flexible="false"
       use_knot_distance="true"
       apply_no_radius="true"
       apply_with_radius="true"
       only_selected="false"
       hide_knots="false" /><linearGradient
       inkscape:collect="always"
       xlink:href="#linearGradient3"
       id="linearGradient4"
       x1="81.840141"
       y1="167.21449"
       x2="158.60936"
       y2="49.000259"
       gradientUnits="userSpaceOnUse"
       spreadMethod="pad" /><linearGradient
       id="paint0_linear_227_4"
       x1="27.5"
       y1="19"
       x2="149"
       y2="174.5"
       gradientUnits="userSpaceOnUse"><stop
         stop-color="#FFD9A0"
         id="stop1" /><stop
         offset="1"
         stop-color="#FFF5F1"
         id="stop2" /></linearGradient><clipPath
       id="clip0_227_4"><rect
         width="200"
         height="200"
         fill="white"
         id="rect2-0" /></clipPath><linearGradient
       id="paint0_linear_104_40"
       x1="27.5"
       y1="19"
       x2="149"
       y2="174.5"
       gradientUnits="userSpaceOnUse"><stop
         stop-color="#FFD9A0"
         id="stop1-9" /><stop
         offset="1"
         stop-color="#FFF5F1"
         id="stop2-2" /></linearGradient><clipPath
       id="clip0_104_40"><rect
         width="200"
         height="200"
         fill="white"
         id="rect2-02" /></clipPath><linearGradient
       id="paint0_linear_104_55"
       x1="157.5"
       y1="32"
       x2="44"
       y2="147.5"
       gradientUnits="userSpaceOnUse"><stop
         offset="0.0509862"
         stop-color="#FFB6E1"
         id="stop1-7" /><stop
         offset="1"
         stop-color="#FBE3EA"
         id="stop2-5" /></linearGradient><clipPath
       id="clip0_104_55"><rect
         width="200"
         height="200"
         fill="white"
         id="rect2-9" /></clipPath><linearGradient
       id="paint0_linear_231_113"
       x1="170.1"
       y1="-9.23648e-06"
       x2="31.8635"
       y2="138.679"
       gradientUnits="userSpaceOnUse"><stop
         stop-color="#B0B9FF"
         id="stop1-2" /><stop
         offset="1"
         stop-color="#E7E9FF"
         id="stop2-8" /></linearGradient></defs><g
     id="layer1"
     transform="matrix(1.2717248,0,0,1.2717248,-40.433504,-26.489011)"
     style="stroke-width:0.786334" /><path
     style="mix-blend-mode:normal;fill:url(#linearGradient4);stroke-width:19.0336;stroke-opacity:0.482814"
     id="rect2"
     width="140.95435"
     height="135.41685"
     x="49.74752"
     y="40.398991"
     sodipodi:type="rect"
     rx="20"
     ry="20"
     transform="matrix(1.2510803,0,0,1.2510803,-50.023315,-35.020329)"
     d="m 69.74752,40.398991 h 100.95435 c 11.08,0 20,8.92 20,20 v 95.416859 c 0,11.08 -8.92,20 -20,20 H 69.74752 c -11.08,0 -20,-8.92 -20,-20 V 60.398991 c 0,-11.08 8.92,-20 20,-20 z"
     inkscape:path-effect="#path-effect3" /><g
     inkscape:groupmode="layer"
     id="layer3"
     inkscape:label="bag"><path
       style="fill:#ffffff;fill-opacity:1;stroke-width:23.812;stroke-dasharray:none;stroke-opacity:0.482814"
       id="rect6"
       width="93.819"
       height="50.081394"
       x="54.925781"
       y="131.93144"
       inkscape:label="rect6"
       sodipodi:type="rect"
       rx="0"
       ry="0"
       inkscape:path-effect="#path-effect1"
       d="m 56.797436,131.93144 h 90.370574 a 1.5767716,1.5767716 45 0 1 1.57677,1.57677 v 38.50463 a 9.9999998,9.9999998 135 0 1 -10,10 H 64.925781 a 9.9999998,9.9999998 45 0 1 -10,-10 V 133.8031 a 1.8716551,1.8716551 135 0 1 1.871655,-1.87166 z" /><circle
       style="fill:none;fill-opacity:1;stroke:#ffffff;stroke-width:6.612;stroke-dasharray:none;stroke-opacity:1"
       id="path6"
       cx="101.4983"
       cy="133.46222"
       r="19.698683" /></g><g
     style="fill:#ffffff;fill-opacity:1;stroke:none;stroke-width:1.63684;stroke-opacity:1"
     id="g6"
     transform="matrix(0.1616423,0,0,0.1616423,42.86637,87.243632)"><path
       fill-rule="evenodd"
       clip-rule="evenodd"
       d="M 100,200 C 155.228,200 200,155.228 200,100 200,44.7715 155.228,0 100,0 44.7715,0 0,44.7715 0,100 0,155.228 44.7715,200 100,200 Z m 0,-12 c 48.601,0 88,-39.399 88,-88 0,-48.6011 -39.399,-88 -88,-88 -48.6011,0 -88,39.3989 -88,88 0,48.601 39.3989,88 88,88 z m 0,-12 c 41.974,0 76,-34.026 76,-76 0,-41.9736 -34.026,-76 -76,-76 -41.9736,0 -76,34.0264 -76,76 0,41.974 34.0264,76 76,76 z m 0,-12 c 35.346,0 64,-28.654 64,-64 0,-35.3462 -28.654,-64 -64,-64 -35.3462,0 -64,28.6538 -64,64 0,35.346 28.6538,64 64,64 z m 52,-64 c 0,28.719 -23.281,52 -52,52 -28.7188,0 -52,-23.281 -52,-52 0,-28.7188 23.2812,-52 52,-52 28.719,0 52,23.2812 52,52 z m -12,0 c 0,22.091 -17.909,40 -40,40 -22.0914,0 -40,-17.909 -40,-40 0,-22.0914 17.9086,-40 40,-40 22.091,0 40,17.9086 40,40 z"
       fill="url(#paint0_linear_227_4)"
       id="path1"
       style="fill:#ffffff;fill-opacity:1;stroke:none;stroke-width:1.63684;stroke-opacity:1" /></g><g
     id="layer1-1"
     transform="matrix(0.16909855,0,0,0.16909855,130.79818,92.892831)"
     style="fill:#ffffff;fill-opacity:1;stroke-width:5.91372"><rect
       style="fill:#ffffff;fill-opacity:1;stroke:none;stroke-width:140.82;stroke-opacity:0.482814"
       id="rect1"
       width="49.762764"
       height="110"
       x="15.118618"
       y="45" /><circle
       style="fill:#ffffff;fill-opacity:1;stroke:none;stroke-width:140.82;stroke-opacity:0.482814"
       id="path1-8"
       cx="131.24713"
       cy="100"
       r="55" /></g><g
     style="fill:#ffffff;fill-opacity:1"
     id="g7"
     transform="matrix(0.26458333,0,0,0.26458333,47.857449,27.974554)"><path
       d="m 100.254,200 c -3.1542,0 -5.8203,-2.284 -6.5841,-5.344 C 91.2352,184.903 86.5744,174.531 79.6875,163.542 71.5278,150.347 59.8958,138.108 44.7917,126.823 31.6549,116.894 18.5181,110.123 5.38138,106.511 2.27005,105.656 0,102.897 0,99.6702 v 0 C 0,96.5066 2.18273,93.7795 5.22473,92.9109 18.1045,89.2335 30.5122,83.2631 42.4479,75 56.1632,65.4514 67.6215,53.993 76.8229,40.625 84.9629,28.7165 90.5507,16.9388 93.5863,5.29207 94.3815,2.24095 97.0676,0 100.221,0 v 0 c 3.188,0 5.893,2.29058 6.669,5.3833 1.752,6.9821 4.49,14.1287 8.214,21.4396 4.688,9.0278 10.677,17.7083 17.969,26.0417 7.465,8.1597 15.799,15.5382 25,22.1354 12.024,8.5231 24.247,14.5111 36.671,17.964 3.048,0.8469 5.256,3.5604 5.256,6.7234 v 0 c 0,3.2106 -2.275,5.9466 -5.371,6.7956 -7.875,2.159 -15.981,5.641 -24.316,10.444 -10.07,5.903 -19.445,12.934 -28.126,21.094 -8.68,7.986 -15.798,16.406 -21.354,25.26 -6.9,11.012 -11.566,21.464 -13.996,31.358 -0.754,3.069 -3.424,5.361 -6.583,5.361 z"
       fill="url(#paint0_linear_104_40)"
       id="path1-7"
       style="fill:#ffffff;fill-opacity:1" /></g><g
     style="fill:#ffffff;fill-opacity:1;stroke-width:1.68597"
     id="g8"
     transform="matrix(0.15384373,0,0,0.16008259,94.024942,68.527083)"><path
       d="m 100,200 c -8.3333,0 -15.2778,-2.691 -20.8333,-8.073 -5.5556,-5.382 -8.3334,-11.892 -8.3334,-19.531 0,-4.34 0.8681,-8.247 2.6042,-11.719 1.7361,-3.472 4.7743,-7.292 9.1146,-11.458 4.5139,-4.167 8.0729,-8.073 10.6771,-11.719 2.7777,-3.819 4.1666,-7.118 4.1666,-9.896 v -9.375 c -3.8194,-0.868 -7.2048,-2.604 -10.1562,-5.208 -2.7778,-2.778 -4.6007,-6.077 -5.4688,-9.896 h -9.375 c -2.9514,0 -6.4236,1.389 -10.4166,4.167 -3.9931,2.777 -7.8125,6.163 -11.4584,10.156 -3.6458,3.993 -7.2916,6.944 -10.9375,8.854 -3.4722,1.91 -7.4652,2.865 -11.9791,2.865 -7.8125,0 -14.4098,-2.778 -19.7917,-8.334 C 2.60417,115.278 0,108.333 0,100 0,91.6667 2.60417,84.7222 7.8125,79.1667 c 5.3819,-5.5556 11.9792,-8.3334 19.7917,-8.3334 7.2916,0 13.5416,2.6042 18.75,7.8125 5.2083,5.2084 9.8958,9.6354 14.0625,13.2813 4.1666,3.6458 8.1597,5.4687 11.9791,5.4687 h 9.375 c 0.8681,-3.993 2.691,-7.2917 5.4688,-9.8958 2.9514,-2.7778 6.3368,-4.5139 10.1562,-5.2084 v -9.3749 c 0,-4.5139 -3.4722,-10.2431 -10.4166,-17.1875 l -5.4688,-5.4688 c -7.118,-7.118 -10.6771,-14.6701 -10.6771,-22.6562 0,-7.8125 2.7778,-14.323 8.3334,-19.53129 C 84.8958,2.69097 91.8403,0 100,0 c 8.333,0 15.278,2.69097 20.833,8.07291 5.556,5.38199 8.334,11.89239 8.334,19.53129 0,8.8541 -4.341,17.1875 -13.021,25 -8.681,7.9861 -13.021,14.7569 -13.021,20.3125 v 9.3749 c 3.993,0.6945 7.292,2.4306 9.896,5.2084 2.778,2.6041 4.514,5.9028 5.208,9.8958 h 9.375 c 5.903,0 12.674,-4.4271 20.313,-13.2812 7.812,-8.8542 15.972,-13.2813 24.479,-13.2813 7.812,0 14.323,2.8646 19.531,8.5938 C 197.309,84.9826 200,91.8403 200,100 c 0,8.333 -2.691,15.278 -8.073,20.833 -5.382,5.556 -11.892,8.334 -19.531,8.334 -7.292,0 -13.455,-2.518 -18.49,-7.552 -5.034,-5.035 -9.722,-9.375 -14.062,-13.021 -4.341,-3.646 -8.42,-5.469 -12.24,-5.469 h -9.375 c -1.389,8.333 -6.423,13.368 -15.104,15.104 v 9.375 c 0,5.208 4.34,11.893 13.021,20.052 8.68,8.16 13.021,16.406 13.021,24.74 0,7.812 -2.865,14.323 -8.594,19.531 C 115.017,197.309 108.16,200 100,200 Z"
       fill="url(#paint0_linear_104_55)"
       id="path1-3"
       style="fill:#ffffff;fill-opacity:1;stroke-width:1.68597" /></g><g
     style="fill:#ffffff;fill-opacity:1;stroke-width:1.46698"
     id="g9"
     transform="matrix(0.18035885,0,0,0.18035885,127.76482,42.635853)"><path
       fill-rule="evenodd"
       clip-rule="evenodd"
       d="m 130.888,47.0671 c 1.756,-4.106 2.73,-8.6369 2.73,-13.3988 C 133.618,15.0738 118.769,0 100.452,0 82.1353,0 67.2864,15.0738 67.2864,33.6683 c 0,4.7619 0.9738,9.2928 2.7303,13.3988 C 63.9884,38.6431 54.2072,33.1658 43.1658,33.1658 24.8488,33.1658 10,48.2397 10,66.8342 10,83.4412 21.8443,97.24 37.4252,100 21.8443,102.76 10,116.559 10,133.166 c 0,18.594 14.8488,33.668 33.1658,33.668 11.0414,0 20.8226,-5.477 26.8509,-13.901 -1.7565,4.106 -2.7303,8.637 -2.7303,13.399 0,18.594 14.8489,33.668 33.1656,33.668 18.317,0 33.166,-15.074 33.166,-33.668 0,-4.762 -0.974,-9.293 -2.73,-13.399 6.028,8.424 15.809,13.901 26.851,13.901 18.317,0 33.166,-15.074 33.166,-33.668 0,-16.607 -11.845,-30.406 -27.426,-33.166 15.581,-2.76 27.426,-16.5588 27.426,-33.1658 0,-18.5945 -14.849,-33.6684 -33.166,-33.6684 -11.042,0 -20.823,5.4773 -26.851,13.9013 z m -3.585,99.4979 c -1.756,-4.106 -2.73,-8.637 -2.73,-13.399 0,-16.607 11.844,-30.406 27.425,-33.166 -15.581,-2.76 -27.425,-16.5588 -27.425,-33.1658 0,-4.7619 0.974,-9.2928 2.73,-13.3988 -6.028,8.424 -15.809,13.9013 -26.851,13.9013 -11.0411,0 -20.8223,-5.4773 -26.8506,-13.9013 1.7565,4.106 2.7303,8.6369 2.7303,13.3988 0,16.607 -11.8443,30.4058 -27.4252,33.1658 15.5809,2.76 27.4252,16.559 27.4252,33.166 0,4.762 -0.9738,9.293 -2.7303,13.399 6.0283,-8.424 15.8095,-13.902 26.8506,-13.902 11.042,0 20.823,5.478 26.851,13.902 z"
       fill="url(#paint0_linear_231_113)"
       id="path1-2"
       style="fill:#ffffff;fill-opacity:1;stroke-width:1.46698" /></g></svg>
